# xmcd
#
# Track frame offsets:
#	150
#	27600
#	56175
#	71489
#	96550
#	116651
#	137312
#	151425
#	169943
#	204118
#	221294
#	235961
#	251242
#	277743
#	289788
#
# Disc length: 4056 seconds
#
# Revision: 1
# Processed by: cddbd v1.5.2PL0 Copyright (c) Steve Scherf et al.
# Submitted via: audiograbber 1.83.01
#
DISCID=df0fd60f
DTITLE=Varius - Communication's door sampler vol  117
DYEAR=2001
DGENRE=New Age
TTITLE0=Patrik Kosmos   Polar Star
TTITLE1=Medwin Goodall   Headwind
TTITLE2=Bernward Koch   Still Magic
TTITLE3=Warren Hill   September Morning
TTITLE4=Simon Cooper   Chasing the Shadow
TTITLE5=Keiko Matsui   Accross the Sun
TTITLE6=Christopher Dean   Pacific Road
TTITLE7=Crystal Clear   Elevn Fores
TTITLE8=Bill Laswell and Jah Wobble   Subcode
TTITLE9=Carlo Ambrosio   Faraway Land
TTITLE10=Dhafer Youssef   Yabay
TTITLE11=Bernward Koch   Pleuss the Painter
TTITLE12=Noel Elmowy   Azrou
TTITLE13=Daniele Montagner (Capriolo Trifoglio) Caduta Eventi
TTITLE14=Paul MIllns   You will rise again
EXTD=YEAR: 2001
EXTT0=
EXTT1=
EXTT2=
EXTT3=
EXTT4=
EXTT5=
EXTT6=
EXTT7=
EXTT8=
EXTT9=
EXTT10=
EXTT11=
EXTT12=
EXTT13=
EXTT14=
PLAYORDER=
